<svg width="1200" height="300" viewBox="0 0 1200 300" fill="none" xmlns="http://www.w3.org/2000/svg">
<rect y="60" width="1200" height="200" fill="white"/>
<rect x="60" y="31" width="1080" height="39" fill="white"/>
<rect x="20" y="40" width="20" height="27" fill="#96ADB7"/>
<rect x="1160" y="40" width="20" height="32" fill="#96ADB7"/>
<rect x="40" y="20" width="20" height="27" fill="#96ADB7"/>
<rect x="40" y="40" width="20" height="20" fill="#B8C9D0"/>
<rect x="1140" y="34" width="20" height="26" fill="#B8C9D0"/>
<rect x="20" y="60" width="20" height="60" fill="#B8C9D0"/>
<rect x="80" y="100" width="20" height="200" fill="#DEE9EE"/>
<rect x="1100" y="100" width="20" height="200" fill="#DEE9EE"/>
<rect x="1160" y="60" width="20" height="60" fill="#B8C9D0"/>
<rect x="1140" y="20" width="20" height="20" fill="#96ADB7"/>
<rect x="60" width="1080" height="31" fill="#96ADB7"/>
<rect x="60" y="20" width="1080" height="20" fill="#B8C9D0"/>
<rect x="100" y="80" width="1000" height="20" fill="#DEE9EE"/>
<rect y="60" width="20" height="140" fill="#96ADB7"/>
<rect x="1180" y="60" width="20" height="140" fill="#96ADB7"/>
</svg>
