<svg width="1200" height="300" viewBox="0 0 1200 300" fill="none" xmlns="http://www.w3.org/2000/svg">
<rect y="60" width="1200" height="240" fill="white"/>
<rect x="60" y="31" width="1080" height="39" fill="white"/>
<rect x="20" y="40" width="20" height="27" fill="#96ADB7"/>
<rect x="1160" y="40" width="20" height="32" fill="#96ADB7"/>
<rect x="40" y="20" width="20" height="27" fill="#96ADB7"/>
<rect x="40" y="40" width="20" height="20" fill="#B8C9D0"/>
<rect x="1140" y="34" width="20" height="26" fill="#B8C9D0"/>
<rect x="20" y="60" width="20" height="60" fill="#B8C9D0"/>
<rect x="80" y="120" width="20" height="180" fill="#DEE9EE"/>
<rect x="1100" y="120" width="20" height="180" fill="#DEE9EE"/>
<rect x="1120" y="160" width="20" height="140" fill="#DEE9EE"/>
<rect x="60" y="160" width="20" height="140" fill="#DEE9EE"/>
<rect x="1140" y="240" width="20" height="60" fill="#DEE9EE"/>
<rect x="40" y="240" width="20" height="60" fill="#DEE9EE"/>
<rect x="1160" y="60" width="20" height="60" fill="#B8C9D0"/>
<rect x="1140" y="20" width="20" height="20" fill="#96ADB7"/>
<rect x="60" width="1080" height="31" fill="#96ADB7"/>
<rect x="60" y="20" width="1080" height="20" fill="#B8C9D0"/>
<rect x="100" y="80" width="1000" height="220" fill="#DEE9EE"/>
<rect x="120" y="120" width="960" height="180" fill="#A6E3FD"/>
<rect x="160" y="160" width="880" height="140" fill="#79D7FF"/>
<rect x="160" y="240" width="880" height="60" fill="#4DCAFF"/>
<rect x="120" y="180" width="40" height="120" fill="#79D7FF"/>
<rect x="1040" y="180" width="40" height="120" fill="#79D7FF"/>
<rect x="140" y="100" width="920" height="20" fill="#A6E3FD"/>
<rect x="100" y="160" width="20" height="140" fill="#A6E3FD"/>
<rect x="80" y="200" width="20" height="100" fill="#A6E3FD"/>
<rect x="1100" y="200" width="20" height="100" fill="#A6E3FD"/>
<rect x="1040" y="260" width="20" height="40" fill="#4DCAFF"/>
<rect x="140" y="260" width="20" height="40" fill="#4DCAFF"/>
<rect x="200" y="220" width="40" height="20" fill="#4DCAFF"/>
<rect x="420" y="220" width="40" height="20" fill="#4DCAFF"/>
<rect x="660" y="220" width="40" height="20" fill="#4DCAFF"/>
<rect x="880" y="220" width="40" height="20" fill="#4DCAFF"/>
<rect x="240" y="140" width="40" height="20" fill="#79D7FF"/>
<rect x="478" y="140" width="40" height="20" fill="#79D7FF"/>
<rect x="738" y="140" width="40" height="20" fill="#79D7FF"/>
<rect x="280" y="240" width="40" height="20" fill="#79D7FF"/>
<rect x="500" y="240" width="40" height="20" fill="#79D7FF"/>
<rect x="740" y="240" width="40" height="20" fill="#79D7FF"/>
<rect x="960" y="240" width="40" height="20" fill="#79D7FF"/>
<rect x="320" y="260" width="20" height="20" fill="#79D7FF"/>
<rect x="260" y="280" width="20" height="20" fill="#3FBCF1"/>
<rect x="370" y="260" width="20" height="20" fill="#3FBCF1"/>
<rect x="460" y="280" width="20" height="20" fill="#3FBCF1"/>
<rect x="820" y="280" width="20" height="20" fill="#3FBCF1"/>
<rect x="880" y="260" width="20" height="20" fill="#3FBCF1"/>
<rect x="960" y="280" width="60" height="20" fill="#3FBCF1"/>
<rect x="680" y="260" width="20" height="20" fill="#3FBCF1"/>
<rect x="160" y="280" width="80" height="20" fill="#3FBCF1"/>
<rect x="120" y="280" width="20" height="20" fill="#4DCAFF"/>
<rect x="80" y="280" width="20" height="20" fill="#79D7FF"/>
<rect x="540" y="260" width="20" height="20" fill="#79D7FF"/>
<rect x="600" y="280" width="20" height="20" fill="#79D7FF"/>
<rect x="780" y="260" width="20" height="20" fill="#79D7FF"/>
<rect x="1060" y="280" width="20" height="20" fill="#4DCAFF"/>
<rect x="1100" y="280" width="20" height="20" fill="#79D7FF"/>
<rect x="322" y="160" width="40" height="20" fill="#A6E3FD"/>
<rect x="560" y="160" width="60" height="20" fill="#A6E3FD"/>
<rect x="820" y="160" width="40" height="20" fill="#A6E3FD"/>
<rect x="362" y="180" width="20" height="20" fill="#A6E3FD"/>
<rect x="393" y="180" width="20" height="20" fill="#4DCAFF"/>
<rect x="460" y="200" width="20" height="20" fill="#4DCAFF"/>
<rect x="562" y="220" width="20" height="20" fill="#4DCAFF"/>
<rect x="700" y="180" width="20" height="20" fill="#4DCAFF"/>
<rect x="620" y="180" width="20" height="20" fill="#A6E3FD"/>
<rect x="732" y="200" width="20" height="20" fill="#A6E3FD"/>
<rect x="860" y="180" width="20" height="20" fill="#A6E3FD"/>
<rect x="880" y="140" width="20" height="20" fill="#79D7FF"/>
<rect x="920" y="120" width="20" height="20" fill="#79D7FF"/>
<rect x="560" y="120" width="20" height="20" fill="#79D7FF"/>
<rect x="200" y="120" width="20" height="20" fill="#79D7FF"/>
<rect x="1120" y="260" width="20" height="40" fill="#A6E3FD"/>
<rect x="60" y="260" width="20" height="40" fill="#A6E3FD"/>
<rect x="1080" y="160" width="20" height="140" fill="#A6E3FD"/>
<rect x="1080" y="240" width="20" height="60" fill="#79D7FF"/>
<rect x="100" y="240" width="20" height="60" fill="#79D7FF"/>
<rect y="60" width="20" height="140" fill="#96ADB7"/>
<rect y="160" width="20" height="40" fill="#B8C9D0"/>
<rect x="1180" y="60" width="20" height="140" fill="#96ADB7"/>
<rect x="1180" y="160" width="20" height="40" fill="#B8C9D0"/>
<rect x="342" y="120" width="100" height="20" fill="#C9EFFF"/>
<rect x="708" y="120" width="100" height="20" fill="#C9EFFF"/>
<rect x="640" y="240" width="100" height="20" fill="#C9EFFF"/>
<rect x="980" y="200" width="80" height="20" fill="#C9EFFF"/>
<rect x="140" y="200" width="100" height="20" fill="#C9EFFF"/>
<rect x="260" y="200" width="20" height="20" fill="#C9EFFF"/>
<rect x="260" y="140" width="20" height="20" fill="#C9EFFF"/>
<rect x="668" y="120" width="20" height="20" fill="#C9EFFF"/>
<rect x="990" y="120" width="20" height="20" fill="#C9EFFF"/>
<rect x="518" y="180" width="20" height="20" fill="#C9EFFF"/>
<rect x="480" y="240" width="20" height="20" fill="#C9EFFF"/>
<rect x="940" y="220" width="20" height="20" fill="#C9EFFF"/>
</svg>
