<svg width="320" height="320" viewBox="0 0 320 320" fill="none" xmlns="http://www.w3.org/2000/svg">
<rect x="120" width="80" height="20" fill="#90C9E1"/>
<rect x="320" y="120" width="80" height="20" transform="rotate(90 320 120)" fill="#90C9E1"/>
<rect x="20" y="120" width="80" height="20" transform="rotate(90 20 120)" fill="#90C9E1"/>
<rect x="280" y="60" width="20" height="20" transform="rotate(90 280 60)" fill="#90C9E1"/>
<rect x="300" y="80" width="40" height="20" transform="rotate(90 300 80)" fill="#90C9E1"/>
<rect x="300" y="200" width="40" height="20" transform="rotate(90 300 200)" fill="#90C9E1"/>
<rect x="260" y="40" width="20" height="20" transform="rotate(90 260 40)" fill="#90C9E1"/>
<rect x="240" y="20" width="20" height="40" transform="rotate(90 240 20)" fill="#90C9E1"/>
<rect x="120" y="20" width="20" height="40" transform="rotate(90 120 20)" fill="#90C9E1"/>
<rect x="60" y="60" width="20" height="20" transform="rotate(90 60 60)" fill="#90C9E1"/>
<rect x="40" y="80" width="40" height="20" transform="rotate(90 40 80)" fill="#90C9E1"/>
<rect x="40" y="200" width="40" height="20" transform="rotate(90 40 200)" fill="#90C9E1"/>
<rect x="80" y="40" width="20" height="20" transform="rotate(90 80 40)" fill="#90C9E1"/>
<rect x="200" y="320" width="80" height="20" transform="rotate(-180 200 320)" fill="#90C9E1"/>
<rect x="40" y="260" width="20" height="20" transform="rotate(-90 40 260)" fill="#90C9E1"/>
<rect x="60" y="280" width="20" height="20" transform="rotate(-90 60 280)" fill="#90C9E1"/>
<rect x="80" y="300" width="20" height="40" transform="rotate(-90 80 300)" fill="#90C9E1"/>
<rect x="200" y="300" width="20" height="40" transform="rotate(-90 200 300)" fill="#90C9E1"/>
<rect x="260" y="260" width="20" height="20" transform="rotate(-90 260 260)" fill="#90C9E1"/>
<rect x="240" y="280" width="20" height="20" transform="rotate(-90 240 280)" fill="#90C9E1"/>
<rect x="80" y="40" width="160" height="240" fill="#90C9E1" fill-opacity="0.5"/>
<rect x="60" y="60" width="20" height="200" fill="#90C9E1" fill-opacity="0.5"/>
<rect x="240" y="60" width="20" height="200" fill="#90C9E1" fill-opacity="0.5"/>
<rect x="260" y="80" width="20" height="160" fill="#90C9E1" fill-opacity="0.5"/>
<rect x="40" y="80" width="20" height="160" fill="#90C9E1" fill-opacity="0.5"/>
<rect x="280" y="120" width="20" height="80" fill="#90C9E1" fill-opacity="0.5"/>
<rect x="20" y="120" width="20" height="80" fill="#90C9E1" fill-opacity="0.5"/>
<rect x="200" y="20" width="20" height="80" transform="rotate(90 200 20)" fill="#90C9E1" fill-opacity="0.5"/>
<rect x="200" y="280" width="20" height="80" transform="rotate(90 200 280)" fill="#90C9E1" fill-opacity="0.5"/>
</svg>
