<svg fill="none" height="360" viewBox="0 0 360 360" width="360" xmlns="http://www.w3.org/2000/svg"><g fill="#90c9e1"><path d="m140 0h80v20h-80z"/><g fill-opacity=".5"><path d="m140 20h80v20h-80z"/><path d="m40 140h80v20h-80z" transform="matrix(0 1 -1 0 180 100)"/><path d="m340 140h80v20h-80z" transform="matrix(0 1 -1 0 480 -200)"/><path d="m140 320h80v20h-80z"/><path d="m100 40h160v20h-160z"/><path d="m60 100h160v20h-160z" transform="matrix(0 1 -1 0 160 40)"/><path d="m320 100h160v20h-160z" transform="matrix(0 1 -1 0 420 -220)"/><path d="m100 300h160v20h-160z"/></g><path d="m360 140h80v20h-80z" transform="matrix(0 1 -1 0 500 -220)"/><path d="m20 140h80v20h-80z" transform="matrix(0 1 -1 0 160 120)"/><path d="m320 60h40v20h-40z" transform="matrix(0 1 -1 0 380 -260)"/><path d="m340 100h40v20h-40z" transform="matrix(0 1 -1 0 440 -240)"/><path d="m340 220h40v20h-40z" transform="matrix(0 1 -1 0 560 -120)"/><path d="m300 40h20v40h-20z" transform="matrix(0 1 -1 0 340 -260)"/><path d="m260 20h20v40h-20z" transform="matrix(0 1 -1 0 280 -240)"/><path d="m140 20h20v40h-20z" transform="matrix(0 1 -1 0 160 -120)"/><path d="m60 60h40v20h-40z" transform="matrix(0 1 -1 0 120 -0)"/><path d="m40 100h40v20h-40z" transform="matrix(0 1 -1 0 140 60)"/><path d="m40 220h40v20h-40z" transform="matrix(0 1 -1 0 260 180)"/><path d="m100 40h20v40h-20z" transform="matrix(0 1 -1 0 140 -60)"/><path d="m220 360h80v20h-80z" transform="matrix(-1 -0 0 -1 440 720)"/><path d="m40 300h40v20h-40z" transform="matrix(0 -1 1 0 -260 340)"/><path d="m60 320h20v40h-20z" transform="matrix(0 -1 1 0 -260 380)"/><path d="m100 340h20v40h-20z" transform="matrix(0 -1 1 0 -240 440)"/><path d="m220 340h20v40h-20z" transform="matrix(0 -1 1 0 -120 560)"/><path d="m300 300h40v20h-40z" transform="matrix(0 -1 1 0 0 600)"/><path d="m260 320h20v40h-20z" transform="matrix(0 -1 1 0 -60 580)"/><path d="m60 60h240v240h-240z" fill-opacity=".5"/></g></svg>