<svg width="360" height="360" viewBox="0 0 360 360" fill="none" xmlns="http://www.w3.org/2000/svg">
<rect x="120" y="20" width="40" height="20" fill="#90C9E1"/>
<rect x="200" y="20" width="40" height="20" fill="#90C9E1"/>
<rect x="160" width="40" height="20" fill="#90C9E1"/>
<rect x="340" y="120" width="40" height="20" transform="rotate(90 340 120)" fill="#90C9E1"/>
<rect x="340" y="200" width="40" height="20" transform="rotate(90 340 200)" fill="#90C9E1"/>
<rect x="360" y="160" width="40" height="20" transform="rotate(90 360 160)" fill="#90C9E1"/>
<rect x="20" y="160" width="40" height="20" transform="rotate(90 20 160)" fill="#90C9E1"/>
<rect x="40" y="120" width="40" height="20" transform="rotate(90 40 120)" fill="#90C9E1"/>
<rect x="40" y="200" width="40" height="20" transform="rotate(90 40 200)" fill="#90C9E1"/>
<rect x="300" y="60" width="40" height="20" transform="rotate(90 300 60)" fill="#90C9E1"/>
<rect x="320" y="100" width="20" height="20" transform="rotate(90 320 100)" fill="#90C9E1"/>
<rect x="320" y="240" width="20" height="20" transform="rotate(90 320 240)" fill="#90C9E1"/>
<rect x="280" y="40" width="20" height="40" transform="rotate(90 280 40)" fill="#90C9E1"/>
<rect x="120" y="40" width="20" height="40" transform="rotate(90 120 40)" fill="#90C9E1"/>
<rect x="80" y="60" width="40" height="20" transform="rotate(90 80 60)" fill="#90C9E1"/>
<rect x="60" y="100" width="20" height="20" transform="rotate(90 60 100)" fill="#90C9E1"/>
<rect x="60" y="240" width="20" height="20" transform="rotate(90 60 240)" fill="#90C9E1"/>
<rect x="200" y="360" width="40" height="20" transform="rotate(-180 200 360)" fill="#90C9E1"/>
<rect x="160" y="340" width="40" height="20" transform="rotate(-180 160 340)" fill="#90C9E1"/>
<rect x="240" y="340" width="40" height="20" transform="rotate(-180 240 340)" fill="#90C9E1"/>
<rect x="60" y="300" width="40" height="20" transform="rotate(-90 60 300)" fill="#90C9E1"/>
<rect x="80" y="320" width="20" height="40" transform="rotate(-90 80 320)" fill="#90C9E1"/>
<rect x="240" y="320" width="20" height="40" transform="rotate(-90 240 320)" fill="#90C9E1"/>
<rect x="280" y="300" width="40" height="20" transform="rotate(-90 280 300)" fill="#90C9E1"/>
<path d="M100 60H260V300H100V60Z" fill="#90C9E1" fill-opacity="0.5"/>
<path d="M80 60H100V300H80V60Z" fill="#90C9E1" fill-opacity="0.5"/>
<path d="M260 60H280V300H260V60Z" fill="#90C9E1" fill-opacity="0.5"/>
<path d="M280 100H300V260H280V100Z" fill="#90C9E1" fill-opacity="0.5"/>
<path d="M60 100H80V260H60V100Z" fill="#90C9E1" fill-opacity="0.5"/>
<path d="M300 120H320V240H300V120Z" fill="#90C9E1" fill-opacity="0.5"/>
<path d="M320 160H340V200H320V160Z" fill="#90C9E1" fill-opacity="0.5"/>
<path d="M20 160H40V200H20V160Z" fill="#90C9E1" fill-opacity="0.5"/>
<path d="M40 120H60V240H40V120Z" fill="#90C9E1" fill-opacity="0.5"/>
<path d="M240 40V60L120 60V40L240 40Z" fill="#90C9E1" fill-opacity="0.5"/>
<path d="M200 20V40L160 40V20L200 20Z" fill="#90C9E1" fill-opacity="0.5"/>
<path d="M200 320V340H160V320H200Z" fill="#90C9E1" fill-opacity="0.5"/>
<path d="M240 300V320H120V300H240Z" fill="#90C9E1" fill-opacity="0.5"/>
</svg>
