<svg width="220" height="220" viewBox="0 0 220 220" fill="none" xmlns="http://www.w3.org/2000/svg">
<rect x="160" y="20" width="20" height="20" fill="#90C9E1"/>
<rect x="60" width="100" height="20" fill="#90C9E1"/>
<rect x="40" y="20" width="20" height="20" fill="#90C9E1"/>
<rect x="20" y="60" width="20" height="20" transform="rotate(-90 20 60)" fill="#90C9E1"/>
<rect y="160" width="100" height="20" transform="rotate(-90 0 160)" fill="#90C9E1"/>
<rect x="20" y="180" width="20" height="20" transform="rotate(-90 20 180)" fill="#90C9E1"/>
<rect x="160" y="220" width="100" height="20" transform="rotate(-180 160 220)" fill="#90C9E1"/>
<rect x="60" y="200" width="20" height="20" transform="rotate(-180 60 200)" fill="#90C9E1"/>
<rect x="180" y="200" width="20" height="20" transform="rotate(-180 180 200)" fill="#90C9E1"/>
<rect x="220" y="60" width="100" height="20" transform="rotate(90 220 60)" fill="#90C9E1"/>
<rect x="200" y="160" width="20" height="20" transform="rotate(90 200 160)" fill="#90C9E1"/>
<rect x="200" y="40" width="20" height="20" transform="rotate(90 200 40)" fill="#90C9E1"/>
<rect x="60" y="20" width="100" height="180" fill="#90C9E1" fill-opacity="0.5"/>
<rect x="160" y="40" width="20" height="140" fill="#90C9E1" fill-opacity="0.5"/>
<rect x="40" y="40" width="20" height="140" fill="#90C9E1" fill-opacity="0.5"/>
<rect x="180" y="60" width="20" height="100" fill="#90C9E1" fill-opacity="0.5"/>
<rect x="20" y="60" width="20" height="100" fill="#90C9E1" fill-opacity="0.5"/>
</svg>
