<svg width="240" height="240" viewBox="0 0 240 240" fill="none" xmlns="http://www.w3.org/2000/svg">
<rect x="60" y="20" width="40" height="20" fill="#90C9E1"/>
<rect x="140" y="20" width="40" height="20" fill="#90C9E1"/>
<rect x="60" y="200" width="40" height="20" fill="#90C9E1"/>
<rect x="140" y="200" width="40" height="20" fill="#90C9E1"/>
<rect x="200" y="100" width="40" height="20" transform="rotate(-90 200 100)" fill="#90C9E1"/>
<rect x="200" y="180" width="40" height="20" transform="rotate(-90 200 180)" fill="#90C9E1"/>
<rect x="20" y="100" width="40" height="20" transform="rotate(-90 20 100)" fill="#90C9E1"/>
<rect x="20" y="180" width="40" height="20" transform="rotate(-90 20 180)" fill="#90C9E1"/>
<rect x="40" y="40" width="20" height="20" fill="#90C9E1"/>
<rect x="40" y="180" width="20" height="20" fill="#90C9E1"/>
<rect x="180" y="40" width="20" height="20" fill="#90C9E1"/>
<rect x="220" y="100" width="20" height="40" fill="#90C9E1"/>
<rect x="140" width="20" height="40" transform="rotate(90 140 0)" fill="#90C9E1"/>
<rect x="140" y="220" width="20" height="40" transform="rotate(90 140 220)" fill="#90C9E1"/>
<rect y="100" width="20" height="40" fill="#90C9E1"/>
<rect x="180" y="180" width="20" height="20" fill="#90C9E1"/>
<rect x="60" y="40" width="120" height="160" fill="#90C9E1" fill-opacity="0.5"/>
<rect x="180" y="60" width="20" height="120" fill="#90C9E1" fill-opacity="0.5"/>
<rect x="40" y="60" width="20" height="120" fill="#90C9E1" fill-opacity="0.5"/>
<rect x="200" y="100" width="20" height="40" fill="#90C9E1" fill-opacity="0.5"/>
<rect x="20" y="100" width="20" height="40" fill="#90C9E1" fill-opacity="0.5"/>
<rect x="140" y="20" width="20" height="40" transform="rotate(90 140 20)" fill="#90C9E1" fill-opacity="0.5"/>
<rect x="140" y="200" width="20" height="40" transform="rotate(90 140 200)" fill="#90C9E1" fill-opacity="0.5"/>
</svg>
